<?xml version="1.0" standalone="no"?>
<svg xmlns:xlink="http://www.w3.org/1999/xlink" xmlns="http://www.w3.org/2000/svg" width="701" height="1081" id="svgCavas"><g id="group" transform="translate(350.5,516) scale(34.03855772253033) translate(38.41824531555179,344.18997475119295)"><path d="M-33.01251828670503,-342.16015676188204L-32.05460906028751,-343.55506896972656L-32.05460906028751,-349.0096092224121L-44.781881570816076,-349.0096092224121L-44.781881570816076,-343.55506896972656L-43.823972344398335,-342.16015676188204L-43.20014715194687,-340.7652478894855L-42.963698506355136,-339.37034027997385L-33.87279212474807,-339.3703402799738L-33.6363434791563,-340.76524788948547Z" y="0" stroke="#444752" stroke-width="1px" vector-effect="non-scaling-stroke" fill="#7c8168"/><path d="M-33.41059920014081,-342.3834259121737L-32.50915487607324,-343.6961136467273L-32.50915487607324,-348.5550634066264L-44.32733575503035,-348.5550634066264L-44.32733575503035,-343.69611364672727L-43.425891430962594,-342.3834259121738L-42.7616408872261,-340.89812363813274L-42.579718040464094,-339.8248860957595L-34.2567725906391,-339.8248860957595L-34.07484974387709,-340.8981236381326Z" y="0" stroke-width="0px" vector-effect="non-scaling-stroke" fill="#9fb9a8"/><path d="M-33.808680113576564,-342.60669506246546L-32.96370069185897,-343.8371583237281L-32.96370069185897,-348.1005175908407L-43.87278993924462,-348.1005175908407L-43.87278993924462,-343.8371583237281L-43.027810517526824,-342.6066950624655L-42.323134622505336,-341.03099938677997L-42.19573757457306,-340.2794319115452L-34.64075305653012,-340.2794319115452L-34.51335600859786,-341.0309993867798Z" y="0" stroke-width="0px" vector-effect="non-scaling-stroke" fill="#ced5d0"/><path d="M-34.20676102701233,-342.8299642127572L-33.418246507644696,-343.97820300072885L-33.418246507644696,-347.645971775055L-43.418244123458884,-347.645971775055L-43.41824412345889,-343.9782030007288L-42.62972960409112,-342.8299642127573L-41.884628357784564,-341.1638751354272L-41.81175710868202,-340.7339777273309L-35.02473352242115,-340.7339777273309L-34.95186227331862,-341.1638751354271Z" y="0" stroke-width="0px" vector-effect="non-scaling-stroke" fill="#f9f2f4"/><path d="M-34.60484194044806,-343.053233363049L-33.872792323430424,-344.1192476777296L-33.872792323430424,-347.1914259592693L-42.963698307673155,-347.1914259592693L-42.96369830767316,-344.1192476777296L-42.231648690655355,-343.05323336304906L-41.4461220930638,-341.2967508840744L-41.427776642790974,-341.18852354311656L-35.408713988312186,-341.1885235431166L-35.39036853803939,-341.2967508840743Z" y="0" stroke-width="0px" vector-effect="non-scaling-stroke" fill="#c2cef2"/><path d="M-34.936602573705414,-343.23930587290215L-34.251610806306246,-344.2367943115421L-34.251610806306246,-346.81260747639345L-42.58487982479734,-346.81260747639345L-42.58487982479734,-344.23679431154216L-41.89988805739807,-343.2393058729023L-41.15215952171355,-341.56734202599245L-41.107767322517404,-341.56734202599245L-35.72872330858577,-341.56734202599245L-35.684331109389575,-341.56734202599245Z" y="0" stroke-width="0px" vector-effect="non-scaling-stroke" fill="#97aecf"/><path d="M-35.268363206962825,-343.4253783827552L-34.63042928918207,-344.3543409453546L-34.63042928918207,-346.4337889935176L-42.20606134192152,-346.4337889935176L-42.20606134192152,-344.3543409453546L-41.56812742414077,-343.4253783827555L-40.90659791987288,-341.9461605088683L-35.92989271123028,-341.9461605088683Z" y="0" stroke-width="0px" vector-effect="non-scaling-stroke" fill="#7d84b5"/><path d="M-35.600123840220185,-343.6114508926083L-35.00924777205789,-344.47188757916706L-35.00924777205789,-346.0549705106418L-41.8272428590457,-346.0549705106418L-41.8272428590457,-344.47188757916706L-41.236366790883494,-343.6114508926088L-40.661036318032224,-342.3249789917441L-36.17545431307099,-342.3249789917441Z" y="0" stroke-width="0px" vector-effect="non-scaling-stroke" fill="#524b61"/><path d="M-35.93188447347764,-343.7975234024612L-35.38806625493371,-344.5894342129795L-35.38806625493371,-345.67615202776597L-41.44842437616988,-345.67615202776597L-41.448424376169875,-344.5894342129796L-40.90460615762616,-343.797523402462L-40.41547471619156,-342.70379747461993L-36.42101591491167,-342.70379747461993Z" y="0" stroke-width="0px" vector-effect="non-scaling-stroke" fill="#4b4741"/></g></svg>