<?xml version="1.0" standalone="no"?>
<svg xmlns:xlink="http://www.w3.org/1999/xlink" xmlns="http://www.w3.org/2000/svg" width="701" height="1081" id="svgCavas"><g id="group" transform="translate(350.5,516) scale(34.03855772253033) translate(38.41824531555179,344.18997475119295)"><path d="M-33.01251828670503,-342.16015676188204L-32.05460906028751,-343.55506896972656L-32.05460906028751,-349.0096092224121L-44.781881570816076,-349.0096092224121L-44.781881570816076,-343.55506896972656L-43.823972344398335,-342.16015676188204L-43.20014715194687,-340.7652478894855L-42.963698506355136,-339.37034027997385L-33.87279212474807,-339.3703402799738L-33.6363434791563,-340.76524788948547Z" y="0" stroke="#4b4741" stroke-width="1px" vector-effect="non-scaling-stroke" fill="#524b61"/><path d="M-33.27795863978398,-342.30903263129653L-32.357700210253434,-343.64911756035065L-32.357700210253434,-348.7065180724463L-44.47879042085015,-348.7065180724462L-44.47879042085015,-343.64911756035065L-43.55853199131945,-342.3090326312967L-42.90775117463106,-340.8538494386835L-42.707660331698996,-339.67343142993974L-34.12883029940419,-339.6734314299397L-33.928739456472115,-340.85384943868337Z" y="0" stroke-width="0px" vector-effect="non-scaling-stroke" fill="#c2cef2"/><path d="M-33.543398992862926,-342.4579085007111L-32.660791360219356,-343.74316615097473L-32.660791360219356,-348.4034269224804L-44.17569927088423,-348.4034269224803L-44.17569927088423,-343.74316615097484L-43.29309163824053,-342.4579085007113L-42.61535519731524,-340.94245098788144L-42.45162215704285,-339.97652257990563L-34.384868474060326,-339.9765225799056L-34.22113543378794,-340.9424509878812Z" y="0" stroke-width="0px" vector-effect="non-scaling-stroke" fill="#f9f2f4"/><path d="M-33.80883934594179,-342.6067843701258L-32.96388251018528,-343.8372147415988L-32.96388251018528,-348.1003357725145L-43.87260812091831,-348.1003357725144L-43.87260812091831,-343.83721474159904L-43.02765128516164,-342.6067843701259L-42.32295921999943,-341.0310525370794L-42.1955839823867,-340.2796137298715L-34.64090664871647,-340.27961372987147L-34.513531411103756,-341.0310525370792Z" y="0" stroke-width="0px" vector-effect="non-scaling-stroke" fill="#ced5d0"/><path d="M-34.20692025937761,-342.8300535204174L-33.41842832597101,-343.9782594185996L-33.41842832597101,-347.6457899567288L-43.41806230513258,-347.6457899567287L-43.41806230513258,-343.9782594185998L-42.629570371725876,-342.8300535204176L-41.88445295527865,-341.16392828572657L-41.81160351649565,-340.7341595456572L-35.02488711460752,-340.7341595456572L-34.95203767582453,-341.1639282857264Z" y="0" stroke-width="0px" vector-effect="non-scaling-stroke" fill="#9fb9a8"/><path d="M-34.605001172813424,-343.053322670709L-33.872974141756735,-344.11930409560034L-33.872974141756735,-347.19124414094307L-42.96351648934685,-347.191244140943L-42.96351648934685,-344.1193040956005L-42.23148945829007,-343.05332267070924L-41.44594669055788,-341.29680403437385L-41.427623050604595,-341.1887053614429L-35.40886758049856,-341.1887053614429L-35.39054394054529,-341.2968040343737Z" y="0" stroke-width="0px" vector-effect="non-scaling-stroke" fill="#7c8168"/><path d="M-35.00308208624919,-343.27659182100075L-34.327519957542464,-344.2603487726011L-34.327519957542464,-346.73669832515736L-42.50897067356112,-346.7366983251573L-42.50897067356112,-344.26034877260133L-41.83340854485434,-343.27659182100103L-41.10295291323333,-341.6432511772286L-41.04364258471357,-341.6432511772286L-35.792848046389565,-341.6432511772286L-35.73353771786977,-341.6432511772286Z" y="0" stroke="#444752" stroke-width="1px" vector-effect="non-scaling-stroke" fill="#f9f2f4"/><path d="M-35.40116299968499,-343.4998609712924L-34.78206577332819,-344.40139344960187L-34.78206577332819,-346.28215250937166L-42.054424857775395,-346.2821525093716L-42.054424857775395,-344.40139344960215L-41.43532763141858,-343.4998609712928L-40.80830256305256,-342.0977969930143L-36.02818806805063,-342.0977969930143Z" y="0" stroke-width="0px" vector-effect="non-scaling-stroke" fill="#c2cef2"/><path d="M-36.06468426619969,-343.8720059909987L-35.539702739079836,-344.6364867172268L-35.53970273907984,-345.52451554362L-41.296787892023744,-345.52451554361994L-41.296787892023744,-344.63648671722706L-40.771806364903846,-343.87200599099896L-40.31717935937123,-342.85543395876596L-36.51931127173203,-342.85543395876596Z" y="0" stroke-width="0px" vector-effect="non-scaling-stroke" fill="#524b61"/><path d="M-36.72820553271438,-344.24415101070497L-36.369239888372924,-344.76687857786834L-40.46725074273039,-344.7668785778683L-40.10828509838914,-344.2441510107052L-39.826056155689884,-343.61307092451756L-37.01043447541339,-343.6130709245176Z" y="0" stroke-width="0px" vector-effect="non-scaling-stroke" fill="#4b4741"/></g></svg>