<?xml version="1.0" standalone="no"?>
<svg xmlns:xlink="http://www.w3.org/1999/xlink" xmlns="http://www.w3.org/2000/svg" width="701" height="1081" id="svgCavas"><g id="group" transform="translate(350.5,516) scale(34.03855772253033) translate(38.41824531555179,344.18997475119295)"><path d="M-33.01251828670503,-342.16015676188204L-32.05460906028751,-343.55506896972656L-32.05460906028751,-349.0096092224121L-44.781881570816076,-349.0096092224121L-44.781881570816076,-343.55506896972656L-43.823972344398335,-342.16015676188204L-43.20014715194687,-340.7652478894855L-42.963698506355136,-339.37034027997385L-33.87279212474807,-339.3703402799738L-33.6363434791563,-340.76524788948547Z" y="0" stroke="#7b5a62" stroke-width="1px" vector-effect="non-scaling-stroke" fill="#524b61"/><path d="M-33.171750652079375,-342.24946442199865L-32.236427386601804,-343.6114868405268L-32.236427386601804,-348.82779089609784L-44.60006324450178,-348.82779089609784L-44.60006324450178,-343.6114868405269L-43.66473997902414,-342.2494644219989L-43.02474464605855,-340.81839818894434L-42.81010631999871,-339.5521586062881L-34.02638431110448,-339.55215860628806L-33.81174598504463,-340.8183981889443Z" y="0" stroke-width="0px" vector-effect="non-scaling-stroke" fill="#7d84b5"/><path d="M-33.33098301745373,-342.3387720821152L-32.4182457129161,-343.6679047113271L-32.4182457129161,-348.6459725697836L-44.41824491818748,-348.64597256978357L-44.41824491818749,-343.6679047113273L-43.50550761364992,-342.3387720821157L-42.84934214017023,-340.87154848840316L-42.65651413364228,-339.7339769326024L-34.1799764974609,-339.73397693260233L-33.98714849093296,-340.8715484884031Z" y="0" stroke-width="0px" vector-effect="non-scaling-stroke" fill="#97aecf"/><path d="M-33.49021538282805,-342.4280797422319L-32.60006403923039,-343.72432258212734L-32.60006403923039,-348.4641542434694L-44.23642659187319,-348.4641542434693L-44.2364265918732,-343.7243225821276L-43.34627524827567,-342.4280797422325L-42.67393963428192,-340.92469878786204L-42.502921947285856,-339.9157952589166L-34.333568683817326,-339.9157952589166L-34.162550996821274,-340.924698787862Z" y="0" stroke-width="0px" vector-effect="non-scaling-stroke" fill="#c2cef2"/><path d="M-33.64944774820241,-342.51738740234845L-32.781882365544675,-343.78074045292766L-32.78188236554468,-348.2823359171552L-44.05460826555889,-348.282335917155L-44.054608265558905,-343.78074045292794L-43.18704288290146,-342.51738740234936L-42.49853712839359,-340.97784908732086L-42.349329760929436,-340.0976135852309L-34.48716087017374,-340.0976135852309L-34.337953502709595,-340.9778490873208Z" y="0" stroke-width="0px" vector-effect="non-scaling-stroke" fill="#f9f2f4"/><path d="M-33.808680113576756,-342.60669506246506L-32.96370069185897,-343.8371583237279L-32.963700691858975,-348.1005175908409L-43.8727899392446,-348.10051759084075L-43.87278993924461,-343.83715832372826L-43.02781051752719,-342.60669506246614L-42.32313462250527,-341.0309993867797L-42.19573757457301,-340.2794319115451L-34.64075305653015,-340.27943191154515L-34.51335600859793,-341.03099938677957Z" y="0" stroke="#7b5a62" stroke-width="1px" vector-effect="non-scaling-stroke" fill="#ced5d0"/><path d="M-33.98566688769044,-342.70596052668446L-33.1657917615573,-343.89986678712245L-33.16579176155731,-347.89842652114265L-43.670698869546264,-347.8984265211424L-43.67069886954628,-343.89986678712285L-42.85082374341373,-342.705960526686L-42.1281747372104,-341.0900759446282L-42.025019859437855,-340.4815229812434L-34.811470771665306,-340.4815229812435L-34.70831589389279,-341.0900759446281Z" y="0" stroke="#7b5a62" stroke-width="1px" vector-effect="non-scaling-stroke" fill="#9db2b0"/><path d="M-34.16265366180401,-342.8052259909041L-33.36788283125564,-343.962575250517L-33.36788283125564,-347.6963354514443L-43.46860779984793,-347.6963354514441L-43.468607799847945,-343.96257525051743L-42.67383696930028,-342.80522599090585L-41.933214851915544,-341.14915250247674L-41.85430214430271,-340.68361405094174L-34.98218848680045,-340.6836140509418L-34.903275779187624,-341.14915250247674Z" y="0" stroke-width="0px" vector-effect="non-scaling-stroke" fill="#9fb9a8"/><path d="M-34.33964043591755,-342.9044914551238L-33.569973900953975,-344.0252837139115L-33.569973900953975,-347.494244381746L-43.266516730149604,-347.4942443817458L-43.26651673014961,-344.0252837139121L-42.49685019518683,-342.9044914551257L-41.73825496662069,-341.20822906032527L-41.68358442916756,-340.8857051206401L-35.15290620193561,-340.8857051206401L-35.09823566448247,-341.2082290603253Z" y="0" stroke-width="0px" vector-effect="non-scaling-stroke" fill="#7c8168"/></g></svg>