<?xml version="1.0" standalone="no"?>
<svg xmlns:xlink="http://www.w3.org/1999/xlink" xmlns="http://www.w3.org/2000/svg" width="701" height="1081" id="svgCavas"><g id="group" transform="translate(350.5,516) scale(34.03855772253033) translate(38.41824531555179,344.18997475119295)"><path d="M-33.01251828670503,-342.16015676188204L-32.05460906028751,-343.55506896972656L-32.05460906028751,-349.0096092224121L-44.781881570816076,-349.0096092224121L-44.781881570816076,-343.55506896972656L-43.823972344398335,-342.16015676188204L-43.20014715194687,-340.7652478894855L-42.963698506355136,-339.37034027997385L-33.87279212474807,-339.3703402799738L-33.6363434791563,-340.76524788948547Z" y="0" stroke-width="0px" vector-effect="non-scaling-stroke" fill="#7c8168"/><path d="M-33.51011942849973,-342.4392431997467L-32.622791330019666,-343.7313748159775L-32.622791330019666,-348.44142695268L-44.21369930108392,-348.44142695267993L-44.21369930108392,-343.7313748159776L-43.32637120260372,-342.43924319974684L-42.6520143210459,-340.93134257529454L-42.48372292399134,-339.938522549706L-34.35276770711184,-339.93852254970597L-34.184476310057256,-340.93134257529454Z" y="0" stroke-width="0px" vector-effect="non-scaling-stroke" fill="#ced5d0"/><path d="M-34.00772057029448,-342.71832963761125L-33.190973599751814,-343.9076806622285L-33.19097359975182,-347.8732446829478L-43.645517031351766,-347.87324468294776L-43.645517031351766,-343.90768066222864L-42.82877006080911,-342.71832963761165L-42.10388149014493,-341.09743726110355L-42.00374734162754,-340.5067048194382L-34.83274328947562,-340.50670481943814L-34.732609140958225,-341.09743726110355Z" y="0" stroke-width="0px" vector-effect="non-scaling-stroke" fill="#f9f2f4"/><path d="M-34.50532171208922,-342.9974160754758L-33.75915586948396,-344.0839865084795L-33.759155869483976,-347.30506241321564L-43.07733476161961,-347.3050624132156L-43.07733476161961,-344.0839865084796L-42.331168919014466,-342.99741607547634L-41.55574865924395,-341.26353194691256L-41.523771759263745,-341.0748870891704L-35.312718871839415,-341.0748870891703L-35.28074197185919,-341.26353194691256Z" y="0" stroke-width="0px" vector-effect="non-scaling-stroke" fill="#8e5248"/></g></svg>